<?xml version="1.0" encoding="UTF-8" standalone="no"?>
<!-- Created with Inkscape (http://www.inkscape.org/) -->

<svg
        xmlns:inkscape="http://www.inkscape.org/namespaces/inkscape"
        xmlns:sodipodi="http://sodipodi.sourceforge.net/DTD/sodipodi-0.dtd"
        xmlns:xlink="http://www.w3.org/1999/xlink"
        version="1.1"
        id="svg1"
        width="341.33334"
        height="341.33334"
        viewBox="0 0 341.33334 341.33334"
        sodipodi:docname="favicon.svg"
        inkscape:version="1.4 (e7c3feb100, 2024-10-09)"
        xmlns="http://www.w3.org/2000/svg"
>
    <defs
            id="defs1">
        <linearGradient
                id="linearGradient6"
                inkscape:collect="always">
            <stop
                    style="stop-color:#3a3a3a;stop-opacity:1;"
                    offset="0.52753621"
                    id="stop6"/>
            <stop
                    style="stop-color:#dadada;stop-opacity:1;"
                    offset="0.7808764"
                    id="stop7"/>
        </linearGradient>
        <linearGradient
                inkscape:collect="always"
                xlink:href="#linearGradient6"
                id="linearGradient7"
                x1="64.124191"
                y1="264.72311"
                x2="4.1116195"
                y2="299.3714"
                gradientUnits="userSpaceOnUse"/>
        <clipPath
                clipPathUnits="userSpaceOnUse"
                id="clipPath17">
            <rect
                    style="fill:#f0b0b0;fill-opacity:1"
                    id="rect18"
                    width="341.33734"
                    height="341.33932"
                    x="0.0038307309"
                    y="0"
                    inkscape:label="Background"/>
        </clipPath>
    </defs>
    <sodipodi:namedview
            id="namedview1"
            pagecolor="#ffffff"
            bordercolor="#000000"
            borderopacity="0.25"
            inkscape:showpageshadow="2"
            inkscape:pageopacity="0.0"
            inkscape:pagecheckerboard="0"
            inkscape:deskcolor="#d1d1d1"
            inkscape:zoom="1.4142136"
            inkscape:cx="125.86501"
            inkscape:cy="292.38865"
            inkscape:window-width="1920"
            inkscape:window-height="1016"
            inkscape:window-x="0"
            inkscape:window-y="0"
            inkscape:window-maximized="1"
            inkscape:current-layer="g1"/>
    <g
            inkscape:groupmode="layer"
            inkscape:label="Image"
            id="g1">
        <rect
                style="fill:#f0b0b0;fill-opacity:1"
                id="rect10"
                width="341.33734"
                height="341.33932"
                x="0.0038307309"
                y="0"
                inkscape:label="Background"/>
        <g
                id="g17"
                clip-path="url(#clipPath17)">
            <rect
                    style="display:inline;fill:#bdbdbd;fill-opacity:1"
                    id="rect12"
                    width="65.875"
                    height="76.875"
                    x="191.375"
                    y="246.75"
                    inkscape:label="ShadowCollar"/>
            <rect
                    style="display:inline;fill:#d2b5a6;fill-opacity:1"
                    id="rect11"
                    width="57.125"
                    height="39"
                    x="151.375"
                    y="247.25"
                    inkscape:label="ShadowFace"/>
            <rect
                    style="fill:#2b143d;fill-opacity:1"
                    id="rect13"
                    width="17.8125"
                    height="14.4375"
                    x="132.8125"
                    y="327"
                    inkscape:label="ShadowBowTie"/>
            <path
                    style="fill:#b51b49;fill-opacity:1"
                    d="M 101.11627,255.08877 C 91.452477,268.83131 80.37447,280.6605 70.710677,289.737 48.004278,311.78037 33.462323,318.63281 2.6516504,341.3558 l 10.6485746,0.10355 c 8.32851,-9.16571 18.242506,-15.67578 27.888745,-23.08452 40.015853,-20.95425 50.399265,-28.01829 60.98796,-35.17856 -13.608909,19.86 -30.560194,35.92636 -47.376155,49.32069 l 9.192389,10.6066 c 17.305733,-7.20353 33.635875,-18.30942 50.027806,-29.16815 l 21.56675,-45.25483 -21.56675,-14.31892 -4.06587,9.54595 C 97.722279,281.40679 92.720659,282.45142 85.206367,289.20667 95.499035,278.2008 104.4012,266.73142 109.07122,253.85133 Z"
                    id="path12"
                    sodipodi:nodetypes="ccccccccccccccc"
                    inkscape:label="Lower Hair"/>
            <path
                    style="display:inline;fill:#847989;fill-opacity:1"
                    d="m 200.81833,320.31937 c 16.71963,-11.50048 52.48468,-49.26369 46.66905,-65.76093 l 42.33801,39.59798 41.34365,47.19938 H 207.38116 Z"
                    id="path10"
                    sodipodi:nodetypes="cccccc"
                    inkscape:label="Shirt"/>
            <path
                    style="display:inline;fill:#ffffff;fill-opacity:1"
                    d="M 19,190.625 19.625,237 c 3.741159,8.93335 12.155222,7.55843 18.070856,4.6579 1.414446,-0.69353 4.756356,-2.10738 9.623911,2.76845 9.504593,8.11021 10.943932,-1.87353 19.430233,-1.30135 6.416667,1.62194 13.770833,7.6133 20.1875,10.875 6.435692,1.74738 18.68974,2.27298 28.125,0.6875 L 90,198.5 c -4.545326,-0.2901 -4.926177,-4.18121 -17.437224,-1.49777 -1.982534,0.42522 -5.101118,-0.0892 -7.812776,-1.68973 -4.059869,-2.98109 -4.817737,-1.83467 -6.375,-1.6875 -6.964097,1.32792 -8.50869,1.83778 -14.1875,2.71875 -3.549214,0.41572 -6.164967,-1.42826 -7.014655,-3.24907 -0.472513,-1.01256 -3.282779,-3.44791 -4.473761,-0.10922 -0.292892,0.82106 -2.455746,1.17221 -4.261584,0.63954 -3.409743,-1.37701 -7.626466,-3.90686 -9.4375,-3 z"
                    id="path7"
                    sodipodi:nodetypes="ccscccccscccsscc"
                    inkscape:label="Sleeve"/>
            <path
                    style="fill:#ffffff;fill-opacity:1"
                    d="m 244.65895,341.32265 c 23.64007,-24.21057 49.61394,-23.91623 77.25141,-6.15404 l 9.28614,6.16467 z"
                    id="path9"
                    sodipodi:nodetypes="cccc"
                    inkscape:label="Shoulder"/>
            <path
                    style="display:inline;fill:#ffffff;fill-opacity:1"
                    d="m 132.40574,269.93801 15.55635,-2.29809 c 7.57942,1.14753 11.49134,7.84069 16.26346,13.6118 31.06778,-15.20779 50.55516,-29.32992 66.64481,-43.13351 l 9.19239,8.13173 c 12.17647,25.15737 -17.34638,49.74357 -40.83541,70.88745 l -40.83542,18.38478 -40.12831,-44.90128 z"
                    id="path8"
                    sodipodi:nodetypes="ccccccccc"
                    inkscape:label="Collar"/>
            <path
                    style="display:inline;fill:#f7ccb4;fill-opacity:1"
                    d="m 132.83436,277.52164 c -8.64592,-9.29719 -16.06319,-15.0529 -37.938207,-41.59614 -5.705291,-24.11945 -5.403381,-26.16827 -10.754558,-43.12541 -0.695376,-2.20355 -6.467049,-17.22514 -8.649769,-27.28723 -1.095624,-2.80955 -0.931015,-14.4348 1.904285,-17.65692 l 14.499596,-29.77952 98.417043,5.47488 48.09315,60.44774 -31.88783,65.96321 c -35.32049,29.4678 -69.95535,27.45546 -73.68371,27.55939 z"
                    id="path2"
                    sodipodi:nodetypes="ccsccccccc"
                    inkscape:label="Face"/>
            <path
                    style="display:inline;fill:#532262;fill-opacity:1"
                    d="m 121.9375,273.75 c -6.01756,12.0271 -17.66165,18.69184 -9.85171,48.75 -8.39255,3.68936 -12.800477,8.83761 -16.83579,15 -6.63474,-0.5684 -13.022577,-1.43177 -25.382813,3.83984 l 64.968753,-0.008 c 0.12559,-6.02153 2.65219,-11.17855 13.53906,-13.45703 0.83577,5.41443 -0.30119,9.68677 -2.04297,13.46094 l 61.1211,0.0391 c 1.22658,2.93201 9.77299,-17.69732 -3.82813,-22.625 -15.76797,-3.11482 -31.64211,-3.70278 -51.625,7.625 -0.99005,-3.32976 3.4755,-6.8201 1.04221,-11.92304 C 147.04113,301.86693 137.0499,283.29468 121.9375,273.75 Z"
                    id="path4"
                    sodipodi:nodetypes="ccccccccccsc"
                    inkscape:label="BowTie"/>
            <path
                    style="display:inline;fill:#b51b49;fill-opacity:1"
                    d="M 0,41.273307 C 54.11085,19.36787 81.797349,28.780181 105.87501,42.469635 164.49235,1.5724382 230.16533,20.435242 257.35785,41.743842 c 46.72392,36.613811 45.31457,90.181878 45.01399,135.611748 8.09733,21.88906 21.58153,40.57362 38.98009,56.82557 l -0.0118,8.37429 c -8.87621,-8.22922 -15.0323,-10.29408 -38.22808,-48.78352 2.14468,41.66776 24.07757,61.15726 38.21909,80.87967 l 0.008,66.6712 -10.54326,0.0512 c -11.15696,-12.60937 -26.9466,-28.34265 -39.06848,-40.9123 -2.58181,-2.67718 -1.76724,-4.1891 -4.44424,-6.84 -11.34195,-11.23138 -25.47819,-21.48249 -34.6053,-31.30822 -10.02713,-10.79466 -15.00734,-18.56278 -23.28181,-23.04795 0.0492,3.93249 -1.32575,7.45439 -2.86537,10.34862 -39.08573,73.47453 -36.59591,81.22351 -39.15491,91.74059 l -17.74163,-0.0372 c 10.44218,-43.70493 34.46536,-84.06653 44.50874,-107.73424 -16.37192,9.04374 -28.42389,8.48759 -40.67515,8.3743 44.90216,0.0991 58.9588,-50.12885 55.62924,-53.53567 1.81065,-10.71785 -13.42914,-26.48769 -23.32839,-40.67514 5.33612,18.2144 -2.32727,28.3041 -7.77613,39.77789 2.25239,-13.22452 3.85656,-26.31257 -2.69174,-37.68432 0.69003,25.6578 -4.4795,28.85396 -9.27154,33.49718 13.53169,-27.6321 -3.59872,-48.20385 -7.47704,-53.53567 -4.18349,34.46742 -16.41865,31.84971 -25.72105,39.47882 21.96573,-19.45355 16.97135,-28.12305 16.44951,-38.58157 -11.06603,36.13656 -22.13207,33.06893 -33.1981,40.67514 13.69216,-11.37726 20.23401,-25.43588 18.84216,-42.46964 -5.14233,10.60932 -10.2941,21.2092 -20.03849,27.21646 -9.85568,6.13293 -14.89152,12.86835 -21.23481,19.44033 1.23068,-8.2746 1.24946,-16.5492 0.59816,-24.8238 l -6.5798,16.74858 c 0.99752,-14.18654 4.00325,-28.67431 14.35593,-44.26412 -9.46647,7.43833 -17.56986,17.62813 -24.212219,32.12676 1.522499,-9.90702 0.211517,-17.06204 12.248939,-33.02401 -15.692923,9.69247 -29.177885,17.76705 -34.992584,28.71187 -5.276185,8.87276 -1.32267,17.74553 -0.598164,26.61829 -3.270184,-4.4155 -7.277551,-12.44549 -5.383475,-26.91737 -9.669934,8.556 -15.733136,19.14657 -7.177966,37.9834 -4.974728,1.60082 -17.206104,-32.74009 -3.289902,-53.83475 -1.904277,3.48345 -18.392391,18.52781 -8.673376,39.7779 -15.012098,-15.31404 0.558613,-46.15421 14.953907,-60.71392 -15.933325,7.938 -31.587424,20.57692 -37.419159,49.32899 C 20.258991,124.18685 45.46811,104.11769 69.087927,84.640188 48.15898,91.843459 25.638664,93.115262 9.5706219,118.43645 22.410025,92.75081 50.860921,80.014165 69.985173,68.489763 89.358258,56.410565 90.828486,53.282796 98.098875,47.254946 56.657718,31.469658 26.563912,43.616597 -0.00220694,54.432912 Z"
                    id="path1"
                    sodipodi:nodetypes="ccscccccccssscsccccccccccccccccccccccccccccccccccc"
                    inkscape:label="Hairs"/>
            <path
                    style="display:inline;fill:#f7ccb4;fill-opacity:1"
                    d="m 248.25,178.75 c 0.38382,17.57141 -9.3475,33.5244 -14.25,50.25 7.32532,-1.87595 34.91316,-15.35136 34.25,-40.25 -2.01388,-9.38934 -3.54152,-19.41156 -20,-10 z"
                    id="path3"
                    sodipodi:nodetypes="cccc"
                    inkscape:label="Ear"/>
            <path
                    style="display:inline;fill:url(#linearGradient7)"
                    d="M 9.1991196e-4,222.64681 68.555197,341.34217 40.812974,341.33454 -0.00298634,263.07026 Z"
                    id="path6"
                    sodipodi:nodetypes="ccccc"
                    inkscape:label="Sword"/>
            <path
                    style="display:inline;fill:#f7ccb4;fill-opacity:1"
                    d="m -0.25,171 c 32.749368,24.53498 30.125229,39.29392 30.25,58.625 -2.528009,-1.53753 -8.76185,-0.0378 -10.984835,0.58211 C 14.097456,237.77616 7.0281959,235.6835 0.03125,238.5 Z"
                    id="path5"
                    sodipodi:nodetypes="ccccc"
                    inkscape:label="Hand"/>
        </g>
    </g>
</svg>
