<?xml version="1.0" encoding="UTF-8" standalone="no"?>
<!-- Created with Inkscape (http://www.inkscape.org/) -->

<svg
   version="1.1"
   id="svg1"
   width="682.66669"
   height="682.66669"
   viewBox="0 0 682.66669 682.66669"
   sodipodi:docname="frey.svg"
   inkscape:version="1.4 (e7c3feb100, 2024-10-09)"
   inkscape:export-filename="frey.svg.png"
   inkscape:export-xdpi="72"
   inkscape:export-ydpi="72"
   xmlns:inkscape="http://www.inkscape.org/namespaces/inkscape"
   xmlns:sodipodi="http://sodipodi.sourceforge.net/DTD/sodipodi-0.dtd"
   xmlns="http://www.w3.org/2000/svg"
   xmlns:svg="http://www.w3.org/2000/svg">
  <defs
     id="defs1" />
  <sodipodi:namedview
     id="namedview1"
     pagecolor="#ffffff"
     bordercolor="#000000"
     borderopacity="0.25"
     inkscape:showpageshadow="2"
     inkscape:pageopacity="0.0"
     inkscape:pagecheckerboard="0"
     inkscape:deskcolor="#d1d1d1"
     inkscape:zoom="1"
     inkscape:cx="337"
     inkscape:cy="268.5"
     inkscape:window-width="1239"
     inkscape:window-height="1012"
     inkscape:window-x="673"
     inkscape:window-y="0"
     inkscape:window-maximized="0"
     inkscape:current-layer="g1" />
  <g
     inkscape:groupmode="layer"
     inkscape:label="Image"
     id="g1"
     style="display:inline">
    <path
       style="display:inline;opacity:1;fill:#dfc1c0;fill-opacity:1"
       d="m 532.36585,494.08336 c -46.05954,15.90658 -91.72373,29.49051 -146.55015,96.90254 -3.71041,-45.96129 -73.39318,25.54847 -115.23847,27.54566 L 451.61372,421.10737 c 26.91518,24.31711 49.27002,31.53289 80.75213,72.97599 z"
       id="path2"
       sodipodi:nodetypes="ccccc" />
    <path
       style="display:inline;opacity:1;fill:#f2dedc;fill-opacity:1"
       d="m 177.65467,445.63208 12.56144,14.35594 c -3.6626,18.86824 -14.48521,33.85445 -29.31314,41.55736 17.10173,16.79477 37.43471,32.74633 40.67825,43.38191 12.58456,3.90588 19.10188,11.85659 22.13207,22.13206 14.66297,14.27481 27.76583,26.84794 46.86826,51.48149 22.16899,-0.85109 36.96389,-13.08749 53.0251,-21.5733 69.32564,-66.43502 85.40245,-125.83395 101.06275,-138.1064 16.10872,-12.62385 50.4791,-60.64334 65.82497,-134.05816 -11.77081,-5.21645 -75.34317,8.11 -104.08051,47.25495 L 159.70975,238.66738 Z"
       id="path1"
       sodipodi:nodetypes="cccccccscccc" />
    <path
       style="display:inline;opacity:1;fill:#000000;fill-opacity:1"
       d="m 376.01653,606.53286 c 37.54725,-66.52097 118.86064,-111.97662 180.18341,-115.04668 40.28121,-4.6167 42.07818,66.24769 80.36348,78.46014 24.80297,7.91179 22.55022,18.44618 46.103,34.10161 l 0.004,78.62239 -259.90286,-0.004 c -1.093,-14.83325 -38.2128,-82.29768 -46.75094,-76.13383 z"
       id="path3"
       sodipodi:nodetypes="ccsccccc" />
    <path
       style="display:inline;opacity:1;fill:#ababab;fill-opacity:1"
       d="M 201.5,74 C 176.08255,57.607517 191.15002,27.458021 198.29687,0 H 177.15625 C 156.31723,32.119943 141.82353,63.05997 200.288,80.433396 187.12618,84.000698 176.97261,90.79113 168.46819,99.348502 155.60019,104.71153 145.20365,114.66443 137.00194,128.69343 99.359978,169.71279 87.059772,238.37769 68.942911,300.69716 61.884751,338.36579 58.79609,380.51602 9.0156114,401.45987 42.553639,396.61078 50.002487,373.01009 63.462833,353.73017 43.63605,430.86139 81.664547,499.17076 100.76272,508.05622 63.705089,471.31205 68.235806,387.31774 79.549513,331.4563 c -4.075366,78.00713 55.477927,175.52449 18.208003,263.2205 12.898194,-22.71791 19.167114,-57.58947 26.693274,-90.15611 3.36962,52.95235 31.41934,97.63387 56.74532,113.66741 -37.57451,-34.64613 -46.02144,-75.76505 -54.624,-116.84939 7.38686,16.2695 11.37884,31.56904 34.47146,52.3259 24.24071,45.50154 36.7406,93.44084 74.59976,111.54609 -23.65798,-21.57995 -59.40541,-63.02976 -48.70642,-139.16615 l -23.59524,-24.48487 c 14.66986,-9.99548 24.23348,-26.12287 26.94512,-41.97244 -4.84188,-4.78801 -11.28493,-12.16235 -12.62621,-15.70096 15.73347,17.87661 20.69035,21.5735 30.75914,31.99658 -10.4476,-15.1643 -24.78018,-29.0336 -29.8915,-45.97666 31.70084,9.73912 38.34058,9.07996 57.11511,11.85876 -70.04633,-15.58242 -67.4431,-127.53748 -70.71067,-193.3937 18.13193,32.68727 33.48235,66.46728 64.16994,94.22197 l -12.72793,-26.33972 c 11.20577,14.0766 27.36551,24.85056 42.60319,36.23922 -12.6624,-12.901 -24.38745,-26.47152 -33.76435,-41.7193 29.35778,22.51701 60.91847,40.92191 76.72108,88.7419 1.94056,43.82071 -3.4236,80.60233 -19.79899,106.77312 9.76657,-4.70501 20.80093,-36.19194 33.23402,-97.22718 C 361.1269,533.9525 311.06064,605.58341 311,682.66797 l 32.5,-0.004 2.875,-16.97656 5.91886,16.95781 h 11.09273 C 368.09106,657.26354 354.18486,637.33662 377.5,606.5 l 8.52015,-15.80546 c -1.19596,-6.34002 -1.37181,-14.50569 -13.07193,-15.16919 -6.73277,-0.0984 -23.23262,5.96999 -33.82322,13.22465 18.73872,-33.10783 50.31749,-74.97822 47.13208,-136.20166 l 6.71751,39.24442 c 0.45968,-34.22773 7.2265,-51.63642 -5.12652,-120.03137 10.9054,-21.52919 66.27041,-52.00045 102.60371,-46.93957 -9.10904,37.96691 -25.54939,88.6343 -56.11144,123.83743 l 7.6014,9.8995 c 8.03014,0.59337 14.8577,-4.34513 21.74353,-9.01562 -2.50537,6.17904 -5.02222,12.34947 -9.36916,17.14734 l 4.77297,0.53033 3.53553,7.95496 11.66726,-17.67767 c -4.18587,8.82116 -4.2532,15.42727 -3.53553,22.45064 2.49839,-6.56047 6.17986,-11.14915 10.07627,-15.37958 -2.26093,4.86682 -3.25827,9.86666 -1.06066,15.2028 l 7.95495,-12.9047 c -0.9732,4.71405 0.2533,9.42809 1.59099,14.14214 3.90311,-3.83484 8.69363,-7.96548 13.25825,-12.02082 l -6.71751,12.19759 3.0052,6.89429 c 27.13644,-32.5166 57.35495,-60.86333 77.07464,-103.41436 1.77572,12.61007 -4.21265,25.22014 -7.07107,37.83021 7.18314,-30.179 62.17327,-54.01851 22.1326,-214.9963 19.25323,45.57808 57.84904,82.36407 91.6875,121.3125 V 64.523494 c -9.36113,-9.532942 -18.72227,-17.360193 -28.0834,-24.571961 9.2771,6.014117 18.32865,10.900496 28.0633,19.202369 v -13.656 C 654.75141,31.333669 625.01915,11.7206 598.91944,3.0052038 L 608.22232,0 H 447.39062 L 466.375,35.25 c -4.10435,-1.133621 -11.91408,-12.148229 -17.89253,-18.279437 6.27882,11.699975 2.99528,13.83758 21.38998,37.653436 -3.04517,-0.253217 -6.02222,-0.392901 -8.57366,0.176776 C 395.34075,26.927752 317.12365,19.40937 201.5,74 Z"
       id="path4"
       sodipodi:nodetypes="cccccccccccccccccccccccccccccccccccccccccccccccccccccccccccccccccccccccccccc" />
    <path
       id="path5"
       style="display:inline;opacity:1;fill:#fd352c;fill-opacity:1"
       d="M 504.5,0.00585938 C 494.17925,21.960403 492.24457,45.107737 494.62109,68.943359 c 29.54548,27.044558 46.53655,49.067941 57.27539,68.589841 7.87495,8.92743 22.72577,12.91229 20.50586,28.99024 7.81696,-3.12529 15.34269,-7.56643 24.04297,-6.7168 -17.2621,-12.84347 -37.26502,-25.78824 -42.42773,-38.18359 12.19185,-36.408672 9.3282,-79.296189 7.86719,-121.62109687 z M 447.50977,0 398.90625,0.03125 c 6.14769,11.02168 11.00146,18.664507 20.76083,41.158581 12.39077,3.7323 28.09428,14.757841 50.8238,13.963546 -7.83771,-12.029855 -15.99858,-24.170972 -21.38928,-37.32062 5.50637,5.178533 8.56556,13.293494 17.80913,18.0095 C 461.05233,22.926171 453.41808,11.367382 447.50977,0 Z"
       sodipodi:nodetypes="ccccccccccccccc" />
    <path
       id="path6"
       style="display:inline;opacity:1;fill:#fd352c;fill-opacity:1"
       d="m 537.15234,580.05664 c -6.77608,0.17367 -12.67355,1.41041 -17.42968,4.01367 -45.10527,24.68827 -57.86087,61.1922 -63.89258,98.57422 l 10.69531,0.0234 C 475.54971,662.71724 464.12261,622.01584 529.5,593 c 30.53326,-9.97841 101.5918,25.19991 153.15625,38.65625 V 622.0625 C 635.97209,609.15215 573.74322,579.1188 537.15234,580.05664 Z m -157.78906,26.11133 c 11.23685,23.52568 31.47478,46.84944 40.87305,76.49023 l 2.53711,0.004 c 6.97496,-7.15581 -29.48286,-71.01028 -43.41016,-76.49414 z" />
  </g>
</svg>
